<?xml version="1.0" standalone="yes"?>

<svg version="1.1" viewBox="0.0 0.0 960.0 540.0" fill="none" stroke="none" stroke-linecap="square" stroke-miterlimit="10" xmlns="http://www.w3.org/2000/svg" xmlns:xlink="http://www.w3.org/1999/xlink"><clipPath id="p.0"><path d="m0 0l960.0 0l0 540.0l-960.0 0l0 -540.0z" clip-rule="nonzero"></path></clipPath><g clip-path="url(#p.0)"><path fill="#ffffff" d="m0 0l960.0 0l0 540.0l-960.0 0z" fill-rule="nonzero"></path><path fill="#000000" fill-opacity="0.0" d="m425.3622 139.16273l272.37796 0l0 31.779526l-272.37796 0z" fill-rule="nonzero"></path><path fill="#000000" d="m442.00284 166.08273l0 -1.25q-0.9375 1.46875 -2.75 1.46875q-1.171875 0 -2.171875 -0.640625q-0.984375 -0.65625 -1.53125 -1.8125q-0.53125 -1.171875 -0.53125 -2.6875q0 -1.46875 0.484375 -2.671875q0.5 -1.203125 1.46875 -1.84375q0.984375 -0.640625 2.203125 -0.640625q0.890625 0 1.578125 0.375q0.703125 0.375 1.140625 0.984375l0 -4.875l1.65625 0l0 13.59375l-1.546875 0zm-5.28125 -4.921875q0 1.890625 0.796875 2.828125q0.8125 0.9375 1.890625 0.9375q1.09375 0 1.859375 -0.890625q0.765625 -0.890625 0.765625 -2.734375q0 -2.015625 -0.78125 -2.953125q-0.78125 -0.953125 -1.921875 -0.953125q-1.109375 0 -1.859375 0.90625q-0.75 0.90625 -0.75 2.859375zm15.703827 3.703125q-0.9375 0.796875 -1.796875 1.125q-0.859375 0.3125 -1.84375 0.3125q-1.609375 0 -2.484375 -0.78125q-0.875 -0.796875 -0.875 -2.03125q0 -0.734375 0.328125 -1.328125q0.328125 -0.59375 0.859375 -0.953125q0.53125 -0.359375 1.203125 -0.546875q0.5 -0.140625 1.484375 -0.25q2.03125 -0.25 2.984375 -0.578125q0 -0.34375 0 -0.4375q0 -1.015625 -0.46875 -1.4375q-0.640625 -0.5625 -1.90625 -0.5625q-1.171875 0 -1.734375 0.40625q-0.5625 0.40625 -0.828125 1.46875l-1.640625 -0.234375q0.234375 -1.046875 0.734375 -1.6875q0.515625 -0.640625 1.46875 -0.984375q0.96875 -0.359375 2.25 -0.359375q1.265625 0 2.046875 0.296875q0.78125 0.296875 1.15625 0.75q0.375 0.453125 0.515625 1.140625q0.09375 0.421875 0.09375 1.53125l0 2.234375q0 2.328125 0.09375 2.953125q0.109375 0.609375 0.4375 1.171875l-1.75 0q-0.265625 -0.515625 -0.328125 -1.21875zm-0.140625 -3.71875q-0.90625 0.359375 -2.734375 0.625q-1.03125 0.140625 -1.453125 0.328125q-0.421875 0.1875 -0.65625 0.546875q-0.234375 0.359375 -0.234375 0.796875q0 0.671875 0.5 1.125q0.515625 0.4375 1.484375 0.4375q0.96875 0 1.71875 -0.421875q0.75 -0.4375 1.109375 -1.15625q0.265625 -0.578125 0.265625 -1.671875l0 -0.609375zm7.7351074 3.4375l0.234375 1.484375q-0.703125 0.140625 -1.265625 0.140625q-0.90625 0 -1.40625 -0.28125q-0.5 -0.296875 -0.703125 -0.75q-0.203125 -0.46875 -0.203125 -1.984375l0 -5.65625l-1.234375 0l0 -1.3125l1.234375 0l0 -2.4375l1.65625 -1.0l0 3.4375l1.6875 0l0 1.3125l-1.6875 0l0 5.75q0 0.71875 0.078125 0.921875q0.09375 0.203125 0.296875 0.328125q0.203125 0.125 0.578125 0.125q0.265625 0 0.734375 -0.078125zm7.9645386 0.28125q-0.9375 0.796875 -1.796875 1.125q-0.859375 0.3125 -1.84375 0.3125q-1.609375 0 -2.484375 -0.78125q-0.875 -0.796875 -0.875 -2.03125q0 -0.734375 0.328125 -1.328125q0.328125 -0.59375 0.859375 -0.953125q0.53125 -0.359375 1.203125 -0.546875q0.5 -0.140625 1.484375 -0.25q2.03125 -0.25 2.984375 -0.578125q0 -0.34375 0 -0.4375q0 -1.015625 -0.46875 -1.4375q-0.640625 -0.5625 -1.90625 -0.5625q-1.171875 0 -1.734375 0.40625q-0.5625 0.40625 -0.828125 1.46875l-1.640625 -0.234375q0.234375 -1.046875 0.734375 -1.6875q0.515625 -0.640625 1.46875 -0.984375q0.96875 -0.359375 2.25 -0.359375q1.265625 0 2.046875 0.296875q0.78125 0.296875 1.15625 0.75q0.375 0.453125 0.515625 1.140625q0.09375 0.421875 0.09375 1.53125l0 2.234375q0 2.328125 0.09375 2.953125q0.109375 0.609375 0.4375 1.171875l-1.75 0q-0.265625 -0.515625 -0.328125 -1.21875zm-0.140625 -3.71875q-0.90625 0.359375 -2.734375 0.625q-1.03125 0.140625 -1.453125 0.328125q-0.421875 0.1875 -0.65625 0.546875q-0.234375 0.359375 -0.234375 0.796875q0 0.671875 0.5 1.125q0.515625 0.4375 1.484375 0.4375q0.96875 0 1.71875 -0.421875q0.75 -0.4375 1.109375 -1.15625q0.265625 -0.578125 0.265625 -1.671875l0 -0.609375z" fill-rule="nonzero"></path><path fill="#000000" fill-opacity="0.0" d="m149.3727 139.16273l272.378 0l0 31.779526l-272.378 0z" fill-rule="nonzero"></path><path fill="#000000" d="m159.60707 166.08273l0 -9.859375l1.5 0l0 1.5q0.578125 -1.046875 1.0625 -1.375q0.484375 -0.34375 1.078125 -0.34375q0.84375 0 1.71875 0.546875l-0.578125 1.546875q-0.609375 -0.359375 -1.234375 -0.359375q-0.546875 0 -0.984375 0.328125q-0.421875 0.328125 -0.609375 0.90625q-0.28125 0.890625 -0.28125 1.953125l0 5.15625l-1.671875 0zm5.603302 -4.921875q0 -2.734375 1.53125 -4.0625q1.265625 -1.09375 3.09375 -1.09375q2.03125 0 3.3125 1.34375q1.296875 1.328125 1.296875 3.671875q0 1.90625 -0.578125 3.0q-0.5625 1.078125 -1.65625 1.6875q-1.078125 0.59375 -2.375 0.59375q-2.0625 0 -3.34375 -1.328125q-1.28125 -1.328125 -1.28125 -3.8125zm1.71875 0q0 1.890625 0.828125 2.828125q0.828125 0.9375 2.078125 0.9375q1.25 0 2.0625 -0.9375q0.828125 -0.953125 0.828125 -2.890625q0 -1.828125 -0.828125 -2.765625q-0.828125 -0.9375 -2.0625 -0.9375q-1.25 0 -2.078125 0.9375q-0.828125 0.9375 -0.828125 2.828125zm11.110092 4.921875l-3.015625 -9.859375l1.71875 0l1.5625 5.6875l0.59375 2.125q0.03125 -0.15625 0.5 -2.03125l1.578125 -5.78125l1.71875 0l1.46875 5.71875l0.484375 1.890625l0.578125 -1.90625l1.6875 -5.703125l1.625 0l-3.078125 9.859375l-1.734375 0l-1.578125 -5.90625l-0.375 -1.671875l-2.0 7.578125l-1.734375 0zm16.828125 3.78125l0 -13.640625l1.53125 0l0 1.28125q0.53125 -0.75 1.203125 -1.125q0.6875 -0.375 1.640625 -0.375q1.265625 0 2.234375 0.65625q0.96875 0.640625 1.453125 1.828125q0.5 1.1875 0.5 2.59375q0 1.515625 -0.546875 2.734375q-0.546875 1.203125 -1.578125 1.84375q-1.03125 0.640625 -2.171875 0.640625q-0.84375 0 -1.515625 -0.34375q-0.65625 -0.359375 -1.078125 -0.890625l0 4.796875l-1.671875 0zm1.515625 -8.65625q0 1.90625 0.765625 2.8125q0.78125 0.90625 1.875 0.90625q1.109375 0 1.890625 -0.9375q0.796875 -0.9375 0.796875 -2.921875q0 -1.875 -0.78125 -2.8125q-0.765625 -0.9375 -1.84375 -0.9375q-1.0625 0 -1.890625 1.0q-0.8125 1.0 -0.8125 2.890625zm8.235092 -0.046875q0 -2.734375 1.53125 -4.0625q1.265625 -1.09375 3.09375 -1.09375q2.03125 0 3.3125 1.34375q1.296875 1.328125 1.296875 3.671875q0 1.90625 -0.578125 3.0q-0.5625 1.078125 -1.65625 1.6875q-1.078125 0.59375 -2.375 0.59375q-2.0625 0 -3.34375 -1.328125q-1.28125 -1.328125 -1.28125 -3.8125zm1.71875 0q0 1.890625 0.828125 2.828125q0.828125 0.9375 2.078125 0.9375q1.25 0 2.0625 -0.9375q0.828125 -0.953125 0.828125 -2.890625q0 -1.828125 -0.828125 -2.765625q-0.828125 -0.9375 -2.0625 -0.9375q-1.25 0 -2.078125 0.9375q-0.828125 0.9375 -0.828125 2.828125zm9.297592 -6.765625l0 -1.90625l1.671875 0l0 1.90625l-1.671875 0zm0 11.6875l0 -9.859375l1.671875 0l0 9.859375l-1.671875 0zm4.129196 0l0 -9.859375l1.5 0l0 1.40625q1.09375 -1.625 3.140625 -1.625q0.890625 0 1.640625 0.328125q0.75 0.3125 1.109375 0.84375q0.375 0.515625 0.53125 1.21875q0.09375 0.46875 0.09375 1.625l0 6.0625l-1.671875 0l0 -6.0q0 -1.015625 -0.203125 -1.515625q-0.1875 -0.515625 -0.6875 -0.8125q-0.5 -0.296875 -1.171875 -0.296875q-1.0625 0 -1.84375 0.671875q-0.765625 0.671875 -0.765625 2.578125l0 5.375l-1.671875 0zm14.031967 -1.5l0.234375 1.484375q-0.703125 0.140625 -1.265625 0.140625q-0.90625 0 -1.40625 -0.28125q-0.5 -0.296875 -0.703125 -0.75q-0.203125 -0.46875 -0.203125 -1.984375l0 -5.65625l-1.234375 0l0 -1.3125l1.234375 0l0 -2.4375l1.65625 -1.0l0 3.4375l1.6875 0l0 1.3125l-1.6875 0l0 5.75q0 0.71875 0.078125 0.921875q0.09375 0.203125 0.296875 0.328125q0.203125 0.125 0.578125 0.125q0.265625 0 0.734375 -0.078125zm8.277054 -1.671875l1.71875 0.21875q-0.40625 1.5 -1.515625 2.34375q-1.09375 0.828125 -2.8125 0.828125q-2.15625 0 -3.421875 -1.328125q-1.265625 -1.328125 -1.265625 -3.734375q0 -2.484375 1.265625 -3.859375q1.28125 -1.375 3.328125 -1.375q1.984375 0 3.234375 1.34375q1.25 1.34375 1.25 3.796875q0 0.140625 -0.015625 0.4375l-7.34375 0q0.09375 1.625 0.921875 2.484375q0.828125 0.859375 2.0625 0.859375q0.90625 0 1.546875 -0.46875q0.65625 -0.484375 1.046875 -1.546875zm-5.484375 -2.703125l5.5 0q-0.109375 -1.234375 -0.625 -1.859375q-0.796875 -0.96875 -2.078125 -0.96875q-1.140625 0 -1.9375 0.78125q-0.78125 0.765625 -0.859375 2.046875zm9.094467 5.875l0 -9.859375l1.5 0l0 1.5q0.578125 -1.046875 1.0625 -1.375q0.484375 -0.34375 1.078125 -0.34375q0.84375 0 1.71875 0.546875l-0.578125 1.546875q-0.609375 -0.359375 -1.234375 -0.359375q-0.546875 0 -0.984375 0.328125q-0.421875 0.328125 -0.609375 0.90625q-0.28125 0.890625 -0.28125 1.953125l0 5.15625l-1.671875 0zm5.556427 -2.9375l1.65625 -0.265625q0.140625 1.0 0.765625 1.53125q0.640625 0.515625 1.78125 0.515625q1.15625 0 1.703125 -0.46875q0.5625 -0.46875 0.5625 -1.09375q0 -0.5625 -0.484375 -0.890625q-0.34375 -0.21875 -1.703125 -0.5625q-1.84375 -0.46875 -2.5625 -0.796875q-0.703125 -0.34375 -1.078125 -0.9375q-0.359375 -0.609375 -0.359375 -1.328125q0 -0.65625 0.296875 -1.21875q0.3125 -0.5625 0.828125 -0.9375q0.390625 -0.28125 1.0625 -0.484375q0.671875 -0.203125 1.4375 -0.203125q1.171875 0 2.046875 0.34375q0.875 0.328125 1.28125 0.90625q0.421875 0.5625 0.578125 1.515625l-1.625 0.21875q-0.109375 -0.75 -0.65625 -1.171875q-0.53125 -0.4375 -1.5 -0.4375q-1.15625 0 -1.640625 0.390625q-0.484375 0.375 -0.484375 0.875q0 0.328125 0.203125 0.59375q0.203125 0.265625 0.640625 0.4375q0.25 0.09375 1.46875 0.4375q1.765625 0.46875 2.46875 0.765625q0.703125 0.296875 1.09375 0.875q0.40625 0.578125 0.40625 1.4375q0 0.828125 -0.484375 1.578125q-0.484375 0.734375 -1.40625 1.140625q-0.921875 0.390625 -2.078125 0.390625q-1.921875 0 -2.9375 -0.796875q-1.0 -0.796875 -1.28125 -2.359375z" fill-rule="nonzero"></path><path fill="#d9d2e9" d="m425.17453 318.0761l54.551178 0l0 46.80316l-54.551178 0z" fill-rule="nonzero"></path><path stroke="#595959" stroke-width="1.0" stroke-linejoin="round" stroke-linecap="butt" d="m425.17453 318.0761l54.551178 0l0 46.80316l-54.551178 0z" fill-rule="nonzero"></path><path fill="#000000" d="m440.19623 344.15768l-0.015625 -0.53125q-0.3125 0.3125 -0.640625 0.46875q-0.328125 0.140625 -0.703125 0.140625q-0.328125 0 -0.578125 -0.09375q-0.234375 -0.09375 -0.390625 -0.234375q-0.140625 -0.15625 -0.21875 -0.359375q-0.078125 -0.203125 -0.078125 -0.4375q0 -0.59375 0.4375 -0.921875q0.453125 -0.34375 1.3125 -0.34375l0.8125 0l0 -0.34375q0 -0.34375 -0.234375 -0.546875q-0.21875 -0.21875 -0.671875 -0.21875q-0.328125 0 -0.65625 0.078125q-0.328125 0.078125 -0.671875 0.21875l0 -0.625q0.140625 -0.046875 0.296875 -0.078125q0.15625 -0.046875 0.328125 -0.078125q0.171875 -0.046875 0.359375 -0.0625q0.203125 -0.03125 0.390625 -0.03125q0.359375 0 0.640625 0.078125q0.296875 0.078125 0.484375 0.25q0.203125 0.15625 0.296875 0.40625q0.109375 0.234375 0.109375 0.5625l0 2.703125l-0.609375 0zm-0.0625 -1.78125l-0.875 0q-0.25 0 -0.4375 0.046875q-0.171875 0.046875 -0.296875 0.140625q-0.109375 0.09375 -0.171875 0.234375q-0.0625 0.125 -0.0625 0.28125q0 0.125 0.03125 0.234375q0.046875 0.09375 0.125 0.171875q0.078125 0.078125 0.203125 0.125q0.125 0.046875 0.296875 0.046875q0.234375 0 0.53125 -0.140625q0.3125 -0.140625 0.65625 -0.453125l0 -0.6875zm4.6015625 3.390625l-1.9375 0l0 -7.265625l1.9375 0l0 0.546875l-1.28125 0l0 6.171875l1.28125 0l0 0.546875zm5.1796875 -4.15625q0 0.578125 -0.125 1.0625q-0.109375 0.484375 -0.359375 0.828125q-0.234375 0.34375 -0.59375 0.546875q-0.34375 0.1875 -0.828125 0.1875q-0.40625 0 -0.75 -0.15625q-0.328125 -0.15625 -0.5625 -0.46875q-0.234375 -0.328125 -0.375 -0.828125q-0.125 -0.5 -0.125 -1.171875q0 -0.59375 0.109375 -1.078125q0.125 -0.484375 0.359375 -0.828125q0.25 -0.34375 0.59375 -0.53125q0.359375 -0.1875 0.828125 -0.1875q0.421875 0 0.75 0.15625q0.34375 0.140625 0.578125 0.46875q0.234375 0.328125 0.359375 0.828125q0.140625 0.484375 0.140625 1.171875zm-0.6875 0.015625q0 -0.125 -0.015625 -0.25q-0.015625 -0.140625 -0.015625 -0.265625l-2.171875 1.609375q0.0625 0.203125 0.15625 0.375q0.09375 0.171875 0.21875 0.296875q0.125 0.109375 0.28125 0.1875q0.171875 0.0625 0.375 0.0625q0.265625 0 0.484375 -0.125q0.21875 -0.125 0.359375 -0.375q0.15625 -0.265625 0.234375 -0.640625q0.09375 -0.375 0.09375 -0.875zm-2.34375 -0.046875q0 0.125 0 0.25q0 0.109375 0.015625 0.234375l2.15625 -1.609375q-0.046875 -0.1875 -0.140625 -0.34375q-0.09375 -0.171875 -0.21875 -0.296875q-0.125 -0.125 -0.28125 -0.1875q-0.15625 -0.0625 -0.359375 -0.0625q-0.265625 0 -0.484375 0.125q-0.21875 0.125 -0.375 0.390625q-0.140625 0.25 -0.234375 0.625q-0.078125 0.375 -0.078125 0.875zm6.4140625 4.1875l-1.921875 0l0 -0.546875l1.265625 0l0 -6.171875l-1.265625 0l0 -0.546875l1.921875 0l0 7.265625zm4.6328125 0l-1.9375 0l0 -7.265625l1.9375 0l0 0.546875l-1.28125 0l0 6.171875l1.28125 0l0 0.546875zm5.1796875 -4.15625q0 0.578125 -0.125 1.0625q-0.109375 0.484375 -0.359375 0.828125q-0.234375 0.34375 -0.59375 0.546875q-0.34375 0.1875 -0.828125 0.1875q-0.40625 0 -0.75 -0.15625q-0.328125 -0.15625 -0.5625 -0.46875q-0.234375 -0.328125 -0.375 -0.828125q-0.125 -0.5 -0.125 -1.171875q0 -0.59375 0.109375 -1.078125q0.125 -0.484375 0.359375 -0.828125q0.25 -0.34375 0.59375 -0.53125q0.359375 -0.1875 0.828125 -0.1875q0.421875 0 0.75 0.15625q0.34375 0.140625 0.578125 0.46875q0.234375 0.328125 0.359375 0.828125q0.140625 0.484375 0.140625 1.171875zm-0.6875 0.015625q0 -0.125 -0.015625 -0.25q-0.015625 -0.140625 -0.015625 -0.265625l-2.171875 1.609375q0.0625 0.203125 0.15625 0.375q0.09375 0.171875 0.21875 0.296875q0.125 0.109375 0.28125 0.1875q0.171875 0.0625 0.375 0.0625q0.265625 0 0.484375 -0.125q0.21875 -0.125 0.359375 -0.375q0.15625 -0.265625 0.234375 -0.640625q0.09375 -0.375 0.09375 -0.875zm-2.34375 -0.046875q0 0.125 0 0.25q0 0.109375 0.015625 0.234375l2.15625 -1.609375q-0.046875 -0.1875 -0.140625 -0.34375q-0.09375 -0.171875 -0.21875 -0.296875q-0.125 -0.125 -0.28125 -0.1875q-0.15625 -0.0625 -0.359375 -0.0625q-0.265625 0 -0.484375 0.125q-0.21875 0.125 -0.375 0.390625q-0.140625 0.25 -0.234375 0.625q-0.078125 0.375 -0.078125 0.875zm6.4140625 4.1875l-1.921875 0l0 -0.546875l1.265625 0l0 -6.171875l-1.265625 0l0 -0.546875l1.921875 0l0 7.265625z" fill-rule="nonzero"></path><path fill="#d9d2e9" d="m479.7257 318.0761l54.55121 0l0 46.80316l-54.55121 0z" fill-rule="nonzero"></path><path stroke="#595959" stroke-width="1.0" stroke-linejoin="round" stroke-linecap="butt" d="m479.7257 318.0761l54.55121 0l0 46.80316l-54.55121 0z" fill-rule="nonzero"></path><path fill="#000000" d="m494.7474 344.15768l-0.015625 -0.53125q-0.3125 0.3125 -0.640625 0.46875q-0.328125 0.140625 -0.703125 0.140625q-0.328125 0 -0.578125 -0.09375q-0.234375 -0.09375 -0.390625 -0.234375q-0.140625 -0.15625 -0.21875 -0.359375q-0.078125 -0.203125 -0.078125 -0.4375q0 -0.59375 0.4375 -0.921875q0.453125 -0.34375 1.3125 -0.34375l0.8125 0l0 -0.34375q0 -0.34375 -0.234375 -0.546875q-0.21875 -0.21875 -0.671875 -0.21875q-0.328125 0 -0.65625 0.078125q-0.328125 0.078125 -0.671875 0.21875l0 -0.625q0.140625 -0.046875 0.296875 -0.078125q0.15625 -0.046875 0.328125 -0.078125q0.171875 -0.046875 0.359375 -0.0625q0.203125 -0.03125 0.390625 -0.03125q0.359375 0 0.640625 0.078125q0.296875 0.078125 0.484375 0.25q0.203125 0.15625 0.296875 0.40625q0.109375 0.234375 0.109375 0.5625l0 2.703125l-0.609375 0zm-0.0625 -1.78125l-0.875 0q-0.25 0 -0.4375 0.046875q-0.171875 0.046875 -0.296875 0.140625q-0.109375 0.09375 -0.171875 0.234375q-0.0625 0.125 -0.0625 0.28125q0 0.125 0.03125 0.234375q0.046875 0.09375 0.125 0.171875q0.078125 0.078125 0.203125 0.125q0.125 0.046875 0.296875 0.046875q0.234375 0 0.53125 -0.140625q0.3125 -0.140625 0.65625 -0.453125l0 -0.6875zm4.6015625 3.390625l-1.9375 0l0 -7.265625l1.9375 0l0 0.546875l-1.28125 0l0 6.171875l1.28125 0l0 0.546875zm5.1796875 -4.15625q0 0.578125 -0.125 1.0625q-0.109375 0.484375 -0.359375 0.828125q-0.234375 0.34375 -0.59375 0.546875q-0.34375 0.1875 -0.828125 0.1875q-0.40625 0 -0.75 -0.15625q-0.328125 -0.15625 -0.5625 -0.46875q-0.234375 -0.328125 -0.375 -0.828125q-0.125 -0.5 -0.125 -1.171875q0 -0.59375 0.109375 -1.078125q0.125 -0.484375 0.359375 -0.828125q0.25 -0.34375 0.59375 -0.53125q0.359375 -0.1875 0.828125 -0.1875q0.421875 0 0.75 0.15625q0.34375 0.140625 0.578125 0.46875q0.234375 0.328125 0.359375 0.828125q0.140625 0.484375 0.140625 1.171875zm-0.6875 0.015625q0 -0.125 -0.015625 -0.25q-0.015625 -0.140625 -0.015625 -0.265625l-2.171875 1.609375q0.0625 0.203125 0.15625 0.375q0.09375 0.171875 0.21875 0.296875q0.125 0.109375 0.28125 0.1875q0.171875 0.0625 0.375 0.0625q0.265625 0 0.484375 -0.125q0.21875 -0.125 0.359375 -0.375q0.15625 -0.265625 0.234375 -0.640625q0.09375 -0.375 0.09375 -0.875zm-2.34375 -0.046875q0 0.125 0 0.25q0 0.109375 0.015625 0.234375l2.15625 -1.609375q-0.046875 -0.1875 -0.140625 -0.34375q-0.09375 -0.171875 -0.21875 -0.296875q-0.125 -0.125 -0.28125 -0.1875q-0.15625 -0.0625 -0.359375 -0.0625q-0.265625 0 -0.484375 0.125q-0.21875 0.125 -0.375 0.390625q-0.140625 0.25 -0.234375 0.625q-0.078125 0.375 -0.078125 0.875zm6.4140625 4.1875l-1.921875 0l0 -0.546875l1.265625 0l0 -6.171875l-1.265625 0l0 -0.546875l1.921875 0l0 7.265625zm4.632782 0l-1.9374695 0l0 -7.265625l1.9374695 0l0 0.546875l-1.2812195 0l0 6.171875l1.2812195 0l0 0.546875zm5.1796875 -4.15625q0 0.578125 -0.125 1.0625q-0.109375 0.484375 -0.359375 0.828125q-0.234375 0.34375 -0.59375 0.546875q-0.34375 0.1875 -0.828125 0.1875q-0.40625 0 -0.75 -0.15625q-0.328125 -0.15625 -0.5625 -0.46875q-0.234375 -0.328125 -0.375 -0.828125q-0.125 -0.5 -0.125 -1.171875q0 -0.59375 0.109375 -1.078125q0.125 -0.484375 0.359375 -0.828125q0.25 -0.34375 0.59375 -0.53125q0.359375 -0.1875 0.828125 -0.1875q0.421875 0 0.75 0.15625q0.34375 0.140625 0.578125 0.46875q0.234375 0.328125 0.359375 0.828125q0.140625 0.484375 0.140625 1.171875zm-0.6875 0.015625q0 -0.125 -0.015625 -0.25q-0.015625 -0.140625 -0.015625 -0.265625l-2.171875 1.609375q0.0625 0.203125 0.15625 0.375q0.09375 0.171875 0.21875 0.296875q0.125 0.109375 0.28125 0.1875q0.171875 0.0625 0.375 0.0625q0.265625 0 0.484375 -0.125q0.21875 -0.125 0.359375 -0.375q0.15625 -0.265625 0.234375 -0.640625q0.09375 -0.375 0.09375 -0.875zm-2.34375 -0.046875q0 0.125 0 0.25q0 0.109375 0.015625 0.234375l2.15625 -1.609375q-0.046875 -0.1875 -0.140625 -0.34375q-0.09375 -0.171875 -0.21875 -0.296875q-0.125 -0.125 -0.28125 -0.1875q-0.15625 -0.0625 -0.359375 -0.0625q-0.265625 0 -0.484375 0.125q-0.21875 0.125 -0.375 0.390625q-0.140625 0.25 -0.234375 0.625q-0.078125 0.375 -0.078125 0.875zm6.4140625 4.1875l-1.921875 0l0 -0.546875l1.265625 0l0 -6.171875l-1.265625 0l0 -0.546875l1.921875 0l0 7.265625z" fill-rule="nonzero"></path><path fill="#d9d2e9" d="m534.2769 318.0761l54.551147 0l0 46.80316l-54.551147 0z" fill-rule="nonzero"></path><path stroke="#595959" stroke-width="1.0" stroke-linejoin="round" stroke-linecap="butt" d="m534.2769 318.0761l54.551147 0l0 46.80316l-54.551147 0z" fill-rule="nonzero"></path><path fill="#000000" d="m549.2986 344.15768l-0.015625 -0.53125q-0.3125 0.3125 -0.640625 0.46875q-0.328125 0.140625 -0.703125 0.140625q-0.328125 0 -0.578125 -0.09375q-0.234375 -0.09375 -0.390625 -0.234375q-0.140625 -0.15625 -0.21875 -0.359375q-0.078125 -0.203125 -0.078125 -0.4375q0 -0.59375 0.4375 -0.921875q0.453125 -0.34375 1.3125 -0.34375l0.8125 0l0 -0.34375q0 -0.34375 -0.234375 -0.546875q-0.21875 -0.21875 -0.671875 -0.21875q-0.328125 0 -0.65625 0.078125q-0.328125 0.078125 -0.671875 0.21875l0 -0.625q0.140625 -0.046875 0.296875 -0.078125q0.15625 -0.046875 0.328125 -0.078125q0.171875 -0.046875 0.359375 -0.0625q0.203125 -0.03125 0.390625 -0.03125q0.359375 0 0.640625 0.078125q0.296875 0.078125 0.484375 0.25q0.203125 0.15625 0.296875 0.40625q0.109375 0.234375 0.109375 0.5625l0 2.703125l-0.609375 0zm-0.0625 -1.78125l-0.875 0q-0.25 0 -0.4375 0.046875q-0.171875 0.046875 -0.296875 0.140625q-0.109375 0.09375 -0.171875 0.234375q-0.0625 0.125 -0.0625 0.28125q0 0.125 0.03125 0.234375q0.046875 0.09375 0.125 0.171875q0.078125 0.078125 0.203125 0.125q0.125 0.046875 0.296875 0.046875q0.234375 0 0.53125 -0.140625q0.3125 -0.140625 0.65625 -0.453125l0 -0.6875zm4.6015625 3.390625l-1.9375 0l0 -7.265625l1.9375 0l0 0.546875l-1.28125 0l0 6.171875l1.28125 0l0 0.546875zm5.1796875 -4.15625q0 0.578125 -0.125 1.0625q-0.109375 0.484375 -0.359375 0.828125q-0.234375 0.34375 -0.59375 0.546875q-0.34375 0.1875 -0.828125 0.1875q-0.40625 0 -0.75 -0.15625q-0.328125 -0.15625 -0.5625 -0.46875q-0.234375 -0.328125 -0.375 -0.828125q-0.125 -0.5 -0.125 -1.171875q0 -0.59375 0.109375 -1.078125q0.125 -0.484375 0.359375 -0.828125q0.25 -0.34375 0.59375 -0.53125q0.359375 -0.1875 0.828125 -0.1875q0.421875 0 0.75 0.15625q0.34375 0.140625 0.578125 0.46875q0.234375 0.328125 0.359375 0.828125q0.140625 0.484375 0.140625 1.171875zm-0.6875 0.015625q0 -0.125 -0.015625 -0.25q-0.015625 -0.140625 -0.015625 -0.265625l-2.171875 1.609375q0.0625 0.203125 0.15625 0.375q0.09375 0.171875 0.21875 0.296875q0.125 0.109375 0.28125 0.1875q0.171875 0.0625 0.375 0.0625q0.265625 0 0.484375 -0.125q0.21875 -0.125 0.359375 -0.375q0.15625 -0.265625 0.234375 -0.640625q0.09375 -0.375 0.09375 -0.875zm-2.34375 -0.046875q0 0.125 0 0.25q0 0.109375 0.015625 0.234375l2.15625 -1.609375q-0.046875 -0.1875 -0.140625 -0.34375q-0.09375 -0.171875 -0.21875 -0.296875q-0.125 -0.125 -0.28125 -0.1875q-0.15625 -0.0625 -0.359375 -0.0625q-0.265625 0 -0.484375 0.125q-0.21875 0.125 -0.375 0.390625q-0.140625 0.25 -0.234375 0.625q-0.078125 0.375 -0.078125 0.875zm6.4140625 4.1875l-1.921875 0l0 -0.546875l1.265625 0l0 -6.171875l-1.265625 0l0 -0.546875l1.921875 0l0 7.265625zm4.6328125 0l-1.9375 0l0 -7.265625l1.9375 0l0 0.546875l-1.28125 0l0 6.171875l1.28125 0l0 0.546875zm5.1796875 -4.15625q0 0.578125 -0.125 1.0625q-0.109375 0.484375 -0.359375 0.828125q-0.234375 0.34375 -0.59375 0.546875q-0.34375 0.1875 -0.828125 0.1875q-0.40625 0 -0.75 -0.15625q-0.328125 -0.15625 -0.5625 -0.46875q-0.234375 -0.328125 -0.375 -0.828125q-0.125 -0.5 -0.125 -1.171875q0 -0.59375 0.109375 -1.078125q0.125 -0.484375 0.359375 -0.828125q0.25 -0.34375 0.59375 -0.53125q0.359375 -0.1875 0.828125 -0.1875q0.421875 0 0.75 0.15625q0.34375 0.140625 0.578125 0.46875q0.234375 0.328125 0.359375 0.828125q0.140625 0.484375 0.140625 1.171875zm-0.6875 0.015625q0 -0.125 -0.015625 -0.25q-0.015625 -0.140625 -0.015625 -0.265625l-2.171875 1.609375q0.0625 0.203125 0.15625 0.375q0.09375 0.171875 0.21875 0.296875q0.125 0.109375 0.28125 0.1875q0.171875 0.0625 0.375 0.0625q0.265625 0 0.484375 -0.125q0.21875 -0.125 0.359375 -0.375q0.15625 -0.265625 0.234375 -0.640625q0.09375 -0.375 0.09375 -0.875zm-2.34375 -0.046875q0 0.125 0 0.25q0 0.109375 0.015625 0.234375l2.15625 -1.609375q-0.046875 -0.1875 -0.140625 -0.34375q-0.09375 -0.171875 -0.21875 -0.296875q-0.125 -0.125 -0.28125 -0.1875q-0.15625 -0.0625 -0.359375 -0.0625q-0.265625 0 -0.484375 0.125q-0.21875 0.125 -0.375 0.390625q-0.140625 0.25 -0.234375 0.625q-0.078125 0.375 -0.078125 0.875zm6.4140625 4.1875l-1.921875 0l0 -0.546875l1.265625 0l0 -6.171875l-1.265625 0l0 -0.546875l1.921875 0l0 7.265625z" fill-rule="nonzero"></path><path fill="#d9d2e9" d="m588.82806 318.0761l54.55121 0l0 46.80316l-54.55121 0z" fill-rule="nonzero"></path><path stroke="#595959" stroke-width="1.0" stroke-linejoin="round" stroke-linecap="butt" d="m588.82806 318.0761l54.55121 0l0 46.80316l-54.55121 0z" fill-rule="nonzero"></path><path fill="#000000" d="m603.8498 344.15768l-0.015625 -0.53125q-0.3125 0.3125 -0.640625 0.46875q-0.328125 0.140625 -0.703125 0.140625q-0.328125 0 -0.578125 -0.09375q-0.234375 -0.09375 -0.390625 -0.234375q-0.140625 -0.15625 -0.21875 -0.359375q-0.078125 -0.203125 -0.078125 -0.4375q0 -0.59375 0.4375 -0.921875q0.453125 -0.34375 1.3125 -0.34375l0.8125 0l0 -0.34375q0 -0.34375 -0.234375 -0.546875q-0.21875 -0.21875 -0.671875 -0.21875q-0.328125 0 -0.65625 0.078125q-0.328125 0.078125 -0.671875 0.21875l0 -0.625q0.140625 -0.046875 0.296875 -0.078125q0.15625 -0.046875 0.328125 -0.078125q0.171875 -0.046875 0.359375 -0.0625q0.203125 -0.03125 0.390625 -0.03125q0.359375 0 0.640625 0.078125q0.296875 0.078125 0.484375 0.25q0.203125 0.15625 0.296875 0.40625q0.109375 0.234375 0.109375 0.5625l0 2.703125l-0.609375 0zm-0.0625 -1.78125l-0.875 0q-0.25 0 -0.4375 0.046875q-0.171875 0.046875 -0.296875 0.140625q-0.109375 0.09375 -0.171875 0.234375q-0.0625 0.125 -0.0625 0.28125q0 0.125 0.03125 0.234375q0.046875 0.09375 0.125 0.171875q0.078125 0.078125 0.203125 0.125q0.125 0.046875 0.296875 0.046875q0.234375 0 0.53125 -0.140625q0.3125 -0.140625 0.65625 -0.453125l0 -0.6875zm4.6015625 3.390625l-1.9375 0l0 -7.265625l1.9375 0l0 0.546875l-1.28125 0l0 6.171875l1.28125 0l0 0.546875zm5.1796875 -4.15625q0 0.578125 -0.125 1.0625q-0.109375 0.484375 -0.359375 0.828125q-0.234375 0.34375 -0.59375 0.546875q-0.34375 0.1875 -0.828125 0.1875q-0.40625 0 -0.75 -0.15625q-0.328125 -0.15625 -0.5625 -0.46875q-0.234375 -0.328125 -0.375 -0.828125q-0.125 -0.5 -0.125 -1.171875q0 -0.59375 0.109375 -1.078125q0.125 -0.484375 0.359375 -0.828125q0.25 -0.34375 0.59375 -0.53125q0.359375 -0.1875 0.828125 -0.1875q0.421875 0 0.75 0.15625q0.34375 0.140625 0.578125 0.46875q0.234375 0.328125 0.359375 0.828125q0.140625 0.484375 0.140625 1.171875zm-0.6875 0.015625q0 -0.125 -0.015625 -0.25q-0.015625 -0.140625 -0.015625 -0.265625l-2.171875 1.609375q0.0625 0.203125 0.15625 0.375q0.09375 0.171875 0.21875 0.296875q0.125 0.109375 0.28125 0.1875q0.171875 0.0625 0.375 0.0625q0.265625 0 0.484375 -0.125q0.21875 -0.125 0.359375 -0.375q0.15625 -0.265625 0.234375 -0.640625q0.09375 -0.375 0.09375 -0.875zm-2.34375 -0.046875q0 0.125 0 0.25q0 0.109375 0.015625 0.234375l2.15625 -1.609375q-0.046875 -0.1875 -0.140625 -0.34375q-0.09375 -0.171875 -0.21875 -0.296875q-0.125 -0.125 -0.28125 -0.1875q-0.15625 -0.0625 -0.359375 -0.0625q-0.265625 0 -0.484375 0.125q-0.21875 0.125 -0.375 0.390625q-0.140625 0.25 -0.234375 0.625q-0.078125 0.375 -0.078125 0.875zm6.4140625 4.1875l-1.921875 0l0 -0.546875l1.265625 0l0 -6.171875l-1.265625 0l0 -0.546875l1.921875 0l0 7.265625zm4.6328125 0l-1.9375 0l0 -7.265625l1.9375 0l0 0.546875l-1.28125 0l0 6.171875l1.28125 0l0 0.546875zm5.1796875 -4.15625q0 0.578125 -0.125 1.0625q-0.109375 0.484375 -0.359375 0.828125q-0.234375 0.34375 -0.59375 0.546875q-0.34375 0.1875 -0.828125 0.1875q-0.40625 0 -0.75 -0.15625q-0.328125 -0.15625 -0.5625 -0.46875q-0.234375 -0.328125 -0.375 -0.828125q-0.125 -0.5 -0.125 -1.171875q0 -0.59375 0.109375 -1.078125q0.125 -0.484375 0.359375 -0.828125q0.25 -0.34375 0.59375 -0.53125q0.359375 -0.1875 0.828125 -0.1875q0.421875 0 0.75 0.15625q0.34375 0.140625 0.578125 0.46875q0.234375 0.328125 0.359375 0.828125q0.140625 0.484375 0.140625 1.171875zm-0.6875 0.015625q0 -0.125 -0.015625 -0.25q-0.015625 -0.140625 -0.015625 -0.265625l-2.171875 1.609375q0.0625 0.203125 0.15625 0.375q0.09375 0.171875 0.21875 0.296875q0.125 0.109375 0.28125 0.1875q0.171875 0.0625 0.375 0.0625q0.265625 0 0.484375 -0.125q0.21875 -0.125 0.359375 -0.375q0.15625 -0.265625 0.234375 -0.640625q0.09375 -0.375 0.09375 -0.875zm-2.34375 -0.046875q0 0.125 0 0.25q0 0.109375 0.015625 0.234375l2.15625 -1.609375q-0.046875 -0.1875 -0.140625 -0.34375q-0.09375 -0.171875 -0.21875 -0.296875q-0.125 -0.125 -0.28125 -0.1875q-0.15625 -0.0625 -0.359375 -0.0625q-0.265625 0 -0.484375 0.125q-0.21875 0.125 -0.375 0.390625q-0.140625 0.25 -0.234375 0.625q-0.078125 0.375 -0.078125 0.875zm6.4140625 4.1875l-1.921875 0l0 -0.546875l1.265625 0l0 -6.171875l-1.265625 0l0 -0.546875l1.921875 0l0 7.265625z" fill-rule="nonzero"></path><path fill="#d9d2e9" d="m643.3793 318.0761l54.551147 0l0 46.80316l-54.551147 0z" fill-rule="nonzero"></path><path stroke="#595959" stroke-width="1.0" stroke-linejoin="round" stroke-linecap="butt" d="m643.3793 318.0761l54.551147 0l0 46.80316l-54.551147 0z" fill-rule="nonzero"></path><path fill="#000000" d="m658.40094 344.15768l-0.015625 -0.53125q-0.3125 0.3125 -0.640625 0.46875q-0.328125 0.140625 -0.703125 0.140625q-0.328125 0 -0.578125 -0.09375q-0.234375 -0.09375 -0.390625 -0.234375q-0.140625 -0.15625 -0.21875 -0.359375q-0.078125 -0.203125 -0.078125 -0.4375q0 -0.59375 0.4375 -0.921875q0.453125 -0.34375 1.3125 -0.34375l0.8125 0l0 -0.34375q0 -0.34375 -0.234375 -0.546875q-0.21875 -0.21875 -0.671875 -0.21875q-0.328125 0 -0.65625 0.078125q-0.328125 0.078125 -0.671875 0.21875l0 -0.625q0.140625 -0.046875 0.296875 -0.078125q0.15625 -0.046875 0.328125 -0.078125q0.171875 -0.046875 0.359375 -0.0625q0.203125 -0.03125 0.390625 -0.03125q0.359375 0 0.640625 0.078125q0.296875 0.078125 0.484375 0.25q0.203125 0.15625 0.296875 0.40625q0.109375 0.234375 0.109375 0.5625l0 2.703125l-0.609375 0zm-0.0625 -1.78125l-0.875 0q-0.25 0 -0.4375 0.046875q-0.171875 0.046875 -0.296875 0.140625q-0.109375 0.09375 -0.171875 0.234375q-0.0625 0.125 -0.0625 0.28125q0 0.125 0.03125 0.234375q0.046875 0.09375 0.125 0.171875q0.078125 0.078125 0.203125 0.125q0.125 0.046875 0.296875 0.046875q0.234375 0 0.53125 -0.140625q0.3125 -0.140625 0.65625 -0.453125l0 -0.6875zm4.6015625 3.390625l-1.9375 0l0 -7.265625l1.9375 0l0 0.546875l-1.28125 0l0 6.171875l1.28125 0l0 0.546875zm5.1796875 -4.15625q0 0.578125 -0.125 1.0625q-0.109375 0.484375 -0.359375 0.828125q-0.234375 0.34375 -0.59375 0.546875q-0.34375 0.1875 -0.828125 0.1875q-0.40625 0 -0.75 -0.15625q-0.328125 -0.15625 -0.5625 -0.46875q-0.234375 -0.328125 -0.375 -0.828125q-0.125 -0.5 -0.125 -1.171875q0 -0.59375 0.109375 -1.078125q0.125 -0.484375 0.359375 -0.828125q0.25 -0.34375 0.59375 -0.53125q0.359375 -0.1875 0.828125 -0.1875q0.421875 0 0.75 0.15625q0.34375 0.140625 0.578125 0.46875q0.234375 0.328125 0.359375 0.828125q0.140625 0.484375 0.140625 1.171875zm-0.6875 0.015625q0 -0.125 -0.015625 -0.25q-0.015625 -0.140625 -0.015625 -0.265625l-2.171875 1.609375q0.0625 0.203125 0.15625 0.375q0.09375 0.171875 0.21875 0.296875q0.125 0.109375 0.28125 0.1875q0.171875 0.0625 0.375 0.0625q0.265625 0 0.484375 -0.125q0.21875 -0.125 0.359375 -0.375q0.15625 -0.265625 0.234375 -0.640625q0.09375 -0.375 0.09375 -0.875zm-2.34375 -0.046875q0 0.125 0 0.25q0 0.109375 0.015625 0.234375l2.15625 -1.609375q-0.046875 -0.1875 -0.140625 -0.34375q-0.09375 -0.171875 -0.21875 -0.296875q-0.125 -0.125 -0.28125 -0.1875q-0.15625 -0.0625 -0.359375 -0.0625q-0.265625 0 -0.484375 0.125q-0.21875 0.125 -0.375 0.390625q-0.140625 0.25 -0.234375 0.625q-0.078125 0.375 -0.078125 0.875zm6.4140625 4.1875l-1.921875 0l0 -0.546875l1.265625 0l0 -6.171875l-1.265625 0l0 -0.546875l1.921875 0l0 7.265625zm4.6328125 0l-1.9375 0l0 -7.265625l1.9375 0l0 0.546875l-1.28125 0l0 6.171875l1.28125 0l0 0.546875zm5.1796875 -4.15625q0 0.578125 -0.125 1.0625q-0.109375 0.484375 -0.359375 0.828125q-0.234375 0.34375 -0.59375 0.546875q-0.34375 0.1875 -0.828125 0.1875q-0.40625 0 -0.75 -0.15625q-0.328125 -0.15625 -0.5625 -0.46875q-0.234375 -0.328125 -0.375 -0.828125q-0.125 -0.5 -0.125 -1.171875q0 -0.59375 0.109375 -1.078125q0.125 -0.484375 0.359375 -0.828125q0.25 -0.34375 0.59375 -0.53125q0.359375 -0.1875 0.828125 -0.1875q0.421875 0 0.75 0.15625q0.34375 0.140625 0.578125 0.46875q0.234375 0.328125 0.359375 0.828125q0.140625 0.484375 0.140625 1.171875zm-0.6875 0.015625q0 -0.125 -0.015625 -0.25q-0.015625 -0.140625 -0.015625 -0.265625l-2.171875 1.609375q0.0625 0.203125 0.15625 0.375q0.09375 0.171875 0.21875 0.296875q0.125 0.109375 0.28125 0.1875q0.171875 0.0625 0.375 0.0625q0.265625 0 0.484375 -0.125q0.21875 -0.125 0.359375 -0.375q0.15625 -0.265625 0.234375 -0.640625q0.09375 -0.375 0.09375 -0.875zm-2.34375 -0.046875q0 0.125 0 0.25q0 0.109375 0.015625 0.234375l2.15625 -1.609375q-0.046875 -0.1875 -0.140625 -0.34375q-0.09375 -0.171875 -0.21875 -0.296875q-0.125 -0.125 -0.28125 -0.1875q-0.15625 -0.0625 -0.359375 -0.0625q-0.265625 0 -0.484375 0.125q-0.21875 0.125 -0.375 0.390625q-0.140625 0.25 -0.234375 0.625q-0.078125 0.375 -0.078125 0.875zm6.4140625 4.1875l-1.921875 0l0 -0.546875l1.265625 0l0 -6.171875l-1.265625 0l0 -0.546875l1.921875 0l0 7.265625z" fill-rule="nonzero"></path><path fill="#d9d2e9" d="m697.9304 318.0761l54.55121 0l0 46.80316l-54.55121 0z" fill-rule="nonzero"></path><path stroke="#595959" stroke-width="1.0" stroke-linejoin="round" stroke-linecap="butt" d="m697.9304 318.0761l54.55121 0l0 46.80316l-54.55121 0z" fill-rule="nonzero"></path><path fill="#000000" d="m712.95215 344.15768l-0.015625 -0.53125q-0.3125 0.3125 -0.640625 0.46875q-0.328125 0.140625 -0.703125 0.140625q-0.328125 0 -0.578125 -0.09375q-0.234375 -0.09375 -0.390625 -0.234375q-0.140625 -0.15625 -0.21875 -0.359375q-0.078125 -0.203125 -0.078125 -0.4375q0 -0.59375 0.4375 -0.921875q0.453125 -0.34375 1.3125 -0.34375l0.8125 0l0 -0.34375q0 -0.34375 -0.234375 -0.546875q-0.21875 -0.21875 -0.671875 -0.21875q-0.328125 0 -0.65625 0.078125q-0.328125 0.078125 -0.671875 0.21875l0 -0.625q0.140625 -0.046875 0.296875 -0.078125q0.15625 -0.046875 0.328125 -0.078125q0.171875 -0.046875 0.359375 -0.0625q0.203125 -0.03125 0.390625 -0.03125q0.359375 0 0.640625 0.078125q0.296875 0.078125 0.484375 0.25q0.203125 0.15625 0.296875 0.40625q0.109375 0.234375 0.109375 0.5625l0 2.703125l-0.609375 0zm-0.0625 -1.78125l-0.875 0q-0.25 0 -0.4375 0.046875q-0.171875 0.046875 -0.296875 0.140625q-0.109375 0.09375 -0.171875 0.234375q-0.0625 0.125 -0.0625 0.28125q0 0.125 0.03125 0.234375q0.046875 0.09375 0.125 0.171875q0.078125 0.078125 0.203125 0.125q0.125 0.046875 0.296875 0.046875q0.234375 0 0.53125 -0.140625q0.3125 -0.140625 0.65625 -0.453125l0 -0.6875zm4.6015625 3.390625l-1.9375 0l0 -7.265625l1.9375 0l0 0.546875l-1.28125 0l0 6.171875l1.28125 0l0 0.546875zm5.1796875 -4.15625q0 0.578125 -0.125 1.0625q-0.109375 0.484375 -0.359375 0.828125q-0.234375 0.34375 -0.59375 0.546875q-0.34375 0.1875 -0.828125 0.1875q-0.40625 0 -0.75 -0.15625q-0.328125 -0.15625 -0.5625 -0.46875q-0.234375 -0.328125 -0.375 -0.828125q-0.125 -0.5 -0.125 -1.171875q0 -0.59375 0.109375 -1.078125q0.125 -0.484375 0.359375 -0.828125q0.25 -0.34375 0.59375 -0.53125q0.359375 -0.1875 0.828125 -0.1875q0.421875 0 0.75 0.15625q0.34375 0.140625 0.578125 0.46875q0.234375 0.328125 0.359375 0.828125q0.140625 0.484375 0.140625 1.171875zm-0.6875 0.015625q0 -0.125 -0.015625 -0.25q-0.015625 -0.140625 -0.015625 -0.265625l-2.171875 1.609375q0.0625 0.203125 0.15625 0.375q0.09375 0.171875 0.21875 0.296875q0.125 0.109375 0.28125 0.1875q0.171875 0.0625 0.375 0.0625q0.265625 0 0.484375 -0.125q0.21875 -0.125 0.359375 -0.375q0.15625 -0.265625 0.234375 -0.640625q0.09375 -0.375 0.09375 -0.875zm-2.34375 -0.046875q0 0.125 0 0.25q0 0.109375 0.015625 0.234375l2.15625 -1.609375q-0.046875 -0.1875 -0.140625 -0.34375q-0.09375 -0.171875 -0.21875 -0.296875q-0.125 -0.125 -0.28125 -0.1875q-0.15625 -0.0625 -0.359375 -0.0625q-0.265625 0 -0.484375 0.125q-0.21875 0.125 -0.375 0.390625q-0.140625 0.25 -0.234375 0.625q-0.078125 0.375 -0.078125 0.875zm6.4140625 4.1875l-1.921875 0l0 -0.546875l1.265625 0l0 -6.171875l-1.265625 0l0 -0.546875l1.921875 0l0 7.265625zm4.6328125 0l-1.9375 0l0 -7.265625l1.9375 0l0 0.546875l-1.28125 0l0 6.171875l1.28125 0l0 0.546875zm5.1796875 -4.15625q0 0.578125 -0.125 1.0625q-0.109375 0.484375 -0.359375 0.828125q-0.234375 0.34375 -0.59375 0.546875q-0.34375 0.1875 -0.828125 0.1875q-0.40625 0 -0.75 -0.15625q-0.328125 -0.15625 -0.5625 -0.46875q-0.234375 -0.328125 -0.375 -0.828125q-0.125 -0.5 -0.125 -1.171875q0 -0.59375 0.109375 -1.078125q0.125 -0.484375 0.359375 -0.828125q0.25 -0.34375 0.59375 -0.53125q0.359375 -0.1875 0.828125 -0.1875q0.421875 0 0.75 0.15625q0.34375 0.140625 0.578125 0.46875q0.234375 0.328125 0.359375 0.828125q0.140625 0.484375 0.140625 1.171875zm-0.6875 0.015625q0 -0.125 -0.015625 -0.25q-0.015625 -0.140625 -0.015625 -0.265625l-2.171875 1.609375q0.0625 0.203125 0.15625 0.375q0.09375 0.171875 0.21875 0.296875q0.125 0.109375 0.28125 0.1875q0.171875 0.0625 0.375 0.0625q0.265625 0 0.484375 -0.125q0.21875 -0.125 0.359375 -0.375q0.15625 -0.265625 0.234375 -0.640625q0.09375 -0.375 0.09375 -0.875zm-2.34375 -0.046875q0 0.125 0 0.25q0 0.109375 0.015625 0.234375l2.15625 -1.609375q-0.046875 -0.1875 -0.140625 -0.34375q-0.09375 -0.171875 -0.21875 -0.296875q-0.125 -0.125 -0.28125 -0.1875q-0.15625 -0.0625 -0.359375 -0.0625q-0.265625 0 -0.484375 0.125q-0.21875 0.125 -0.375 0.390625q-0.140625 0.25 -0.234375 0.625q-0.078125 0.375 -0.078125 0.875zm6.4140625 4.1875l-1.921875 0l0 -0.546875l1.265625 0l0 -6.171875l-1.265625 0l0 -0.546875l1.921875 0l0 7.265625z" fill-rule="nonzero"></path><path fill="#ffffff" d="m752.4816 318.0761l54.55121 0l0 46.80316l-54.55121 0z" fill-rule="nonzero"></path><path stroke="#595959" stroke-width="1.0" stroke-linejoin="round" stroke-linecap="butt" d="m752.4816 318.0761l54.55121 0l0 46.80316l-54.55121 0z" fill-rule="nonzero"></path><path fill="#ffffff" d="m807.03284 318.0761l54.551147 0l0 46.80316l-54.551147 0z" fill-rule="nonzero"></path><path stroke="#595959" stroke-width="1.0" stroke-linejoin="round" stroke-linecap="butt" d="m807.03284 318.0761l54.551147 0l0 46.80316l-54.551147 0z" fill-rule="nonzero"></path><path fill="#ffffff" d="m316.07217 318.0761l54.551178 0l0 46.80316l-54.551178 0z" fill-rule="nonzero"></path><path stroke="#595959" stroke-width="1.0" stroke-linejoin="round" stroke-linecap="butt" d="m316.07217 318.0761l54.551178 0l0 46.80316l-54.551178 0z" fill-rule="nonzero"></path><path fill="#ffffff" d="m370.62335 318.0761l54.551178 0l0 46.80316l-54.551178 0z" fill-rule="nonzero"></path><path stroke="#595959" stroke-width="1.0" stroke-linejoin="round" stroke-linecap="butt" d="m370.62335 318.0761l54.551178 0l0 46.80316l-54.551178 0z" fill-rule="nonzero"></path><path fill="#d9ead3" d="m207.51837 318.0761l54.551178 0l0 46.80316l-54.551178 0z" fill-rule="nonzero"></path><path stroke="#595959" stroke-width="1.0" stroke-linejoin="round" stroke-linecap="butt" d="m207.51837 318.0761l54.551178 0l0 46.80316l-54.551178 0z" fill-rule="nonzero"></path><path fill="#000000" d="m229.13771 344.15768l-0.015625 -0.53125q-0.3125 0.3125 -0.640625 0.46875q-0.328125 0.140625 -0.703125 0.140625q-0.328125 0 -0.578125 -0.09375q-0.234375 -0.09375 -0.390625 -0.234375q-0.140625 -0.15625 -0.21875 -0.359375q-0.078125 -0.203125 -0.078125 -0.4375q0 -0.59375 0.4375 -0.921875q0.453125 -0.34375 1.3125 -0.34375l0.8125 0l0 -0.34375q0 -0.34375 -0.234375 -0.546875q-0.21875 -0.21875 -0.671875 -0.21875q-0.328125 0 -0.65625 0.078125q-0.328125 0.078125 -0.671875 0.21875l0 -0.625q0.140625 -0.046875 0.296875 -0.078125q0.15625 -0.046875 0.328125 -0.078125q0.171875 -0.046875 0.359375 -0.0625q0.203125 -0.03125 0.390625 -0.03125q0.359375 0 0.640625 0.078125q0.296875 0.078125 0.484375 0.25q0.203125 0.15625 0.296875 0.40625q0.109375 0.234375 0.109375 0.5625l0 2.703125l-0.609375 0zm-0.0625 -1.78125l-0.875 0q-0.25 0 -0.4375 0.046875q-0.171875 0.046875 -0.296875 0.140625q-0.109375 0.09375 -0.171875 0.234375q-0.0625 0.125 -0.0625 0.28125q0 0.125 0.03125 0.234375q0.046875 0.09375 0.125 0.171875q0.078125 0.078125 0.203125 0.125q0.125 0.046875 0.296875 0.046875q0.234375 0 0.53125 -0.140625q0.3125 -0.140625 0.65625 -0.453125l0 -0.6875zm4.6015625 3.390625l-1.9375 0l0 -7.265625l1.9375 0l0 0.546875l-1.28125 0l0 6.171875l1.28125 0l0 0.546875zm5.0078125 -1.609375l-3.203125 0l0 -0.640625l1.3125 0l0 -3.71875l-1.21875 0.65625l-0.25 -0.578125l1.625 -0.84375l0.59375 0l0 4.484375l1.140625 0l0 0.640625zm3.5546875 1.609375l-1.921875 0l0 -0.546875l1.265625 0l0 -6.171875l-1.265625 0l0 -0.546875l1.921875 0l0 7.265625z" fill-rule="nonzero"></path><path fill="#ffffff" d="m262.06955 318.0761l54.551178 0l0 46.80316l-54.551178 0z" fill-rule="nonzero"></path><path stroke="#595959" stroke-width="1.0" stroke-linejoin="round" stroke-linecap="butt" d="m262.06955 318.0761l54.551178 0l0 46.80316l-54.551178 0z" fill-rule="nonzero"></path><path fill="#ffffff" d="m98.41601 318.0761l54.551186 0l0 46.80316l-54.551186 0z" fill-rule="nonzero"></path><path stroke="#595959" stroke-width="1.0" stroke-linejoin="round" stroke-linecap="butt" d="m98.41601 318.0761l54.551186 0l0 46.80316l-54.551186 0z" fill-rule="nonzero"></path><path fill="#d9ead3" d="m152.9672 318.0761l54.551178 0l0 46.80316l-54.551178 0z" fill-rule="nonzero"></path><path stroke="#595959" stroke-width="1.0" stroke-linejoin="round" stroke-linecap="butt" d="m152.9672 318.0761l54.551178 0l0 46.80316l-54.551178 0z" fill-rule="nonzero"></path><path fill="#000000" d="m174.58653 344.15768l-0.015625 -0.53125q-0.3125 0.3125 -0.640625 0.46875q-0.328125 0.140625 -0.703125 0.140625q-0.328125 0 -0.578125 -0.09375q-0.234375 -0.09375 -0.390625 -0.234375q-0.140625 -0.15625 -0.21875 -0.359375q-0.078125 -0.203125 -0.078125 -0.4375q0 -0.59375 0.4375 -0.921875q0.453125 -0.34375 1.3125 -0.34375l0.8125 0l0 -0.34375q0 -0.34375 -0.234375 -0.546875q-0.21875 -0.21875 -0.671875 -0.21875q-0.328125 0 -0.65625 0.078125q-0.328125 0.078125 -0.671875 0.21875l0 -0.625q0.140625 -0.046875 0.296875 -0.078125q0.15625 -0.046875 0.328125 -0.078125q0.171875 -0.046875 0.359375 -0.0625q0.203125 -0.03125 0.390625 -0.03125q0.359375 0 0.640625 0.078125q0.296875 0.078125 0.484375 0.25q0.203125 0.15625 0.296875 0.40625q0.109375 0.234375 0.109375 0.5625l0 2.703125l-0.609375 0zm-0.0625 -1.78125l-0.875 0q-0.25 0 -0.4375 0.046875q-0.171875 0.046875 -0.296875 0.140625q-0.109375 0.09375 -0.171875 0.234375q-0.0625 0.125 -0.0625 0.28125q0 0.125 0.03125 0.234375q0.046875 0.09375 0.125 0.171875q0.078125 0.078125 0.203125 0.125q0.125 0.046875 0.296875 0.046875q0.234375 0 0.53125 -0.140625q0.3125 -0.140625 0.65625 -0.453125l0 -0.6875zm4.6015625 3.390625l-1.9375 0l0 -7.265625l1.9375 0l0 0.546875l-1.28125 0l0 6.171875l1.28125 0l0 0.546875zm5.1796875 -4.15625q0 0.578125 -0.125 1.0625q-0.109375 0.484375 -0.359375 0.828125q-0.234375 0.34375 -0.59375 0.546875q-0.34375 0.1875 -0.828125 0.1875q-0.40625 0 -0.75 -0.15625q-0.328125 -0.15625 -0.5625 -0.46875q-0.234375 -0.328125 -0.375 -0.828125q-0.125 -0.5 -0.125 -1.171875q0 -0.59375 0.109375 -1.078125q0.125 -0.484375 0.359375 -0.828125q0.25 -0.34375 0.59375 -0.53125q0.359375 -0.1875 0.828125 -0.1875q0.421875 0 0.75 0.15625q0.34375 0.140625 0.578125 0.46875q0.234375 0.328125 0.359375 0.828125q0.140625 0.484375 0.140625 1.171875zm-0.6875 0.015625q0 -0.125 -0.015625 -0.25q-0.015625 -0.140625 -0.015625 -0.265625l-2.171875 1.609375q0.0625 0.203125 0.15625 0.375q0.09375 0.171875 0.21875 0.296875q0.125 0.109375 0.28125 0.1875q0.171875 0.0625 0.375 0.0625q0.265625 0 0.484375 -0.125q0.21875 -0.125 0.359375 -0.375q0.15625 -0.265625 0.234375 -0.640625q0.09375 -0.375 0.09375 -0.875zm-2.34375 -0.046875q0 0.125 0 0.25q0 0.109375 0.015625 0.234375l2.15625 -1.609375q-0.046875 -0.1875 -0.140625 -0.34375q-0.09375 -0.171875 -0.21875 -0.296875q-0.125 -0.125 -0.28125 -0.1875q-0.15625 -0.0625 -0.359375 -0.0625q-0.265625 0 -0.484375 0.125q-0.21875 0.125 -0.375 0.390625q-0.140625 0.25 -0.234375 0.625q-0.078125 0.375 -0.078125 0.875zm6.4140625 4.1875l-1.921875 0l0 -0.546875l1.265625 0l0 -6.171875l-1.265625 0l0 -0.546875l1.921875 0l0 7.265625z" fill-rule="nonzero"></path><path fill="#d9d2e9" d="m425.17322 170.94226l54.551178 0l0 46.803146l-54.551178 0z" fill-rule="nonzero"></path><path stroke="#595959" stroke-width="1.0" stroke-linejoin="round" stroke-linecap="butt" d="m425.17322 170.94226l54.551178 0l0 46.803146l-54.551178 0z" fill-rule="nonzero"></path><path fill="#000000" d="m454.3121 194.47696q0 0.578125 -0.125 1.0625q-0.109375 0.484375 -0.359375 0.828125q-0.234375 0.34375 -0.59375 0.546875q-0.34375 0.1875 -0.828125 0.1875q-0.40625 0 -0.75 -0.15625q-0.328125 -0.15625 -0.5625 -0.46875q-0.234375 -0.328125 -0.375 -0.828125q-0.125 -0.5 -0.125 -1.171875q0 -0.59375 0.109375 -1.078125q0.125 -0.484375 0.359375 -0.828125q0.25 -0.34375 0.59375 -0.53125q0.359375 -0.1875 0.828125 -0.1875q0.421875 0 0.75 0.15625q0.34375 0.140625 0.578125 0.46875q0.234375 0.328125 0.359375 0.828125q0.140625 0.484375 0.140625 1.171875zm-0.6875 0.015625q0 -0.125 -0.015625 -0.25q-0.015625 -0.140625 -0.015625 -0.265625l-2.171875 1.609375q0.0625 0.203125 0.15625 0.375q0.09375 0.171875 0.21875 0.296875q0.125 0.109375 0.28125 0.1875q0.171875 0.0625 0.375 0.0625q0.265625 0 0.484375 -0.125q0.21875 -0.125 0.359375 -0.375q0.15625 -0.265625 0.234375 -0.640625q0.09375 -0.375 0.09375 -0.875zm-2.34375 -0.046875q0 0.125 0 0.25q0 0.109375 0.015625 0.234375l2.15625 -1.609375q-0.046875 -0.1875 -0.140625 -0.34375q-0.09375 -0.171875 -0.21875 -0.296875q-0.125 -0.125 -0.28125 -0.1875q-0.15625 -0.0625 -0.359375 -0.0625q-0.265625 0 -0.484375 0.125q-0.21875 0.125 -0.375 0.390625q-0.140625 0.25 -0.234375 0.625q-0.078125 0.375 -0.078125 0.875z" fill-rule="nonzero"></path><path fill="#d9d2e9" d="m479.7244 170.94226l54.551178 0l0 46.803146l-54.551178 0z" fill-rule="nonzero"></path><path stroke="#595959" stroke-width="1.0" stroke-linejoin="round" stroke-linecap="butt" d="m479.7244 170.94226l54.551178 0l0 46.803146l-54.551178 0z" fill-rule="nonzero"></path><path fill="#000000" d="m508.6914 197.02383l-3.203125 0l0 -0.640625l1.3125 0l0 -3.71875l-1.21875 0.65625l-0.25 -0.578125l1.625 -0.84375l0.59375 0l0 4.484375l1.140625 0l0 0.640625z" fill-rule="nonzero"></path><path fill="#d9d2e9" d="m534.2756 170.94226l54.55121 0l0 46.803146l-54.55121 0z" fill-rule="nonzero"></path><path stroke="#595959" stroke-width="1.0" stroke-linejoin="round" stroke-linecap="butt" d="m534.2756 170.94226l54.55121 0l0 46.803146l-54.55121 0z" fill-rule="nonzero"></path><path fill="#000000" d="m563.2895 197.02383l-3.359375 0l0 -0.609375l1.3125 -1.3125q0.328125 -0.328125 0.53125 -0.5625q0.203125 -0.234375 0.3125 -0.421875q0.125 -0.1875 0.15625 -0.359375q0.046875 -0.171875 0.046875 -0.375q0 -0.1875 -0.0625 -0.359375q-0.046875 -0.171875 -0.15625 -0.296875q-0.09375 -0.125 -0.265625 -0.203125q-0.171875 -0.078125 -0.40625 -0.078125q-0.328125 0 -0.59375 0.15625q-0.265625 0.140625 -0.484375 0.359375l-0.375 -0.4375q0.296875 -0.3125 0.671875 -0.484375q0.375 -0.1875 0.875 -0.1875q0.34375 0 0.609375 0.109375q0.28125 0.09375 0.484375 0.28125q0.203125 0.1875 0.3125 0.46875q0.125 0.28125 0.125 0.625q0 0.296875 -0.078125 0.546875q-0.078125 0.25 -0.25 0.5q-0.15625 0.234375 -0.390625 0.5q-0.234375 0.265625 -0.5625 0.59375l-0.9375 0.890625l2.484375 0l0 0.65625z" fill-rule="nonzero"></path><path fill="#d9d2e9" d="m588.8268 170.94226l54.551147 0l0 46.803146l-54.551147 0z" fill-rule="nonzero"></path><path stroke="#595959" stroke-width="1.0" stroke-linejoin="round" stroke-linecap="butt" d="m588.8268 170.94226l54.551147 0l0 46.803146l-54.551147 0z" fill-rule="nonzero"></path><path fill="#000000" d="m617.7469 195.47696q0 0.328125 -0.140625 0.625q-0.140625 0.296875 -0.421875 0.515625q-0.265625 0.21875 -0.6875 0.359375q-0.40625 0.125 -0.953125 0.125q-0.296875 0 -0.546875 -0.03125q-0.234375 -0.015625 -0.453125 -0.046875l0 -0.609375q0.25 0.046875 0.515625 0.078125q0.265625 0.015625 0.546875 0.015625q0.390625 0 0.65625 -0.0625q0.265625 -0.078125 0.4375 -0.203125q0.171875 -0.140625 0.25 -0.3125q0.078125 -0.1875 0.078125 -0.421875q0 -0.203125 -0.09375 -0.359375q-0.09375 -0.15625 -0.265625 -0.265625q-0.15625 -0.109375 -0.40625 -0.15625q-0.234375 -0.0625 -0.515625 -0.0625l-0.578125 0l0 -0.546875l0.59375 0q0.234375 0 0.421875 -0.0625q0.1875 -0.0625 0.3125 -0.171875q0.140625 -0.125 0.203125 -0.28125q0.078125 -0.171875 0.078125 -0.375q0 -0.421875 -0.25 -0.609375q-0.25 -0.1875 -0.734375 -0.1875q-0.25 0 -0.53125 0.0625q-0.265625 0.046875 -0.578125 0.140625l0 -0.59375q0.125 -0.046875 0.28125 -0.078125q0.15625 -0.03125 0.296875 -0.0625q0.15625 -0.03125 0.296875 -0.03125q0.15625 -0.015625 0.296875 -0.015625q0.40625 0 0.703125 0.09375q0.3125 0.078125 0.515625 0.25q0.21875 0.15625 0.3125 0.390625q0.109375 0.234375 0.109375 0.53125q0 0.4375 -0.234375 0.734375q-0.21875 0.296875 -0.609375 0.46875q0.203125 0.03125 0.390625 0.125q0.203125 0.09375 0.359375 0.25q0.15625 0.140625 0.25 0.34375q0.09375 0.1875 0.09375 0.4375z" fill-rule="nonzero"></path><path fill="#d9d2e9" d="m643.3779 170.94226l54.55121 0l0 46.803146l-54.55121 0z" fill-rule="nonzero"></path><path stroke="#595959" stroke-width="1.0" stroke-linejoin="round" stroke-linecap="butt" d="m643.3779 170.94226l54.55121 0l0 46.803146l-54.55121 0z" fill-rule="nonzero"></path><path fill="#000000" d="m672.64185 195.89883l-0.859375 0l0 1.125l-0.703125 0l0 -1.125l-2.453125 0l0 -0.609375l2.171875 -3.375l0.984375 0l0 3.375l0.859375 0l0 0.609375zm-1.5625 -3.328125l-1.78125 2.71875l1.78125 0l0 -2.71875z" fill-rule="nonzero"></path><path fill="#d9d2e9" d="m697.92914 170.94226l54.551147 0l0 46.803146l-54.551147 0z" fill-rule="nonzero"></path><path stroke="#595959" stroke-width="1.0" stroke-linejoin="round" stroke-linecap="butt" d="m697.92914 170.94226l54.551147 0l0 46.803146l-54.551147 0z" fill-rule="nonzero"></path><path fill="#000000" d="m726.818 195.38321q0 0.390625 -0.171875 0.703125q-0.15625 0.3125 -0.453125 0.53125q-0.28125 0.21875 -0.671875 0.359375q-0.390625 0.125 -0.84375 0.125q-0.109375 0 -0.25 -0.015625q-0.125 0 -0.25 -0.015625q-0.125 0 -0.25 -0.015625q-0.125 -0.015625 -0.21875 -0.03125l0 -0.625q0.203125 0.0625 0.46875 0.09375q0.28125 0.015625 0.5625 0.015625q0.3125 0 0.5625 -0.078125q0.25 -0.078125 0.421875 -0.21875q0.171875 -0.140625 0.265625 -0.328125q0.09375 -0.203125 0.09375 -0.453125q0 -0.46875 -0.34375 -0.6875q-0.34375 -0.21875 -0.984375 -0.21875l-0.96875 0l0 -2.609375l2.75 0l0 0.59375l-2.109375 0l0 1.4375l0.453125 0q0.359375 0 0.703125 0.0625q0.359375 0.0625 0.625 0.234375q0.28125 0.171875 0.4375 0.453125q0.171875 0.265625 0.171875 0.6875z" fill-rule="nonzero"></path><path fill="#ffffff" d="m752.4803 170.94226l54.55121 0l0 46.803146l-54.55121 0z" fill-rule="nonzero"></path><path stroke="#595959" stroke-width="1.0" stroke-linejoin="round" stroke-linecap="butt" d="m752.4803 170.94226l54.55121 0l0 46.803146l-54.55121 0z" fill-rule="nonzero"></path><path fill="#ffffff" d="m807.0315 170.94226l54.55121 0l0 46.803146l-54.55121 0z" fill-rule="nonzero"></path><path stroke="#595959" stroke-width="1.0" stroke-linejoin="round" stroke-linecap="butt" d="m807.0315 170.94226l54.55121 0l0 46.803146l-54.55121 0z" fill-rule="nonzero"></path><path fill="#ffffff" d="m316.07086 170.94226l54.551178 0l0 46.803146l-54.551178 0z" fill-rule="nonzero"></path><path stroke="#595959" stroke-width="1.0" stroke-linejoin="round" stroke-linecap="butt" d="m316.07086 170.94226l54.551178 0l0 46.803146l-54.551178 0z" fill-rule="nonzero"></path><path fill="#ffffff" d="m370.62204 170.94226l54.551178 0l0 46.803146l-54.551178 0z" fill-rule="nonzero"></path><path stroke="#595959" stroke-width="1.0" stroke-linejoin="round" stroke-linecap="butt" d="m370.62204 170.94226l54.551178 0l0 46.803146l-54.551178 0z" fill-rule="nonzero"></path><path fill="#d9ead3" d="m207.51706 170.94226l54.551178 0l0 46.803146l-54.551178 0z" fill-rule="nonzero"></path><path stroke="#595959" stroke-width="1.0" stroke-linejoin="round" stroke-linecap="butt" d="m207.51706 170.94226l54.551178 0l0 46.803146l-54.551178 0z" fill-rule="nonzero"></path><path fill="#000000" d="m230.05827 194.47696q0 0.578125 -0.125 1.0625q-0.109375 0.484375 -0.359375 0.828125q-0.234375 0.34375 -0.59375 0.546875q-0.34375 0.1875 -0.828125 0.1875q-0.40625 0 -0.75 -0.15625q-0.328125 -0.15625 -0.5625 -0.46875q-0.234375 -0.328125 -0.375 -0.828125q-0.125 -0.5 -0.125 -1.171875q0 -0.59375 0.109375 -1.078125q0.125 -0.484375 0.359375 -0.828125q0.25 -0.34375 0.59375 -0.53125q0.359375 -0.1875 0.828125 -0.1875q0.421875 0 0.75 0.15625q0.34375 0.140625 0.578125 0.46875q0.234375 0.328125 0.359375 0.828125q0.140625 0.484375 0.140625 1.171875zm-0.6875 0.015625q0 -0.125 -0.015625 -0.25q-0.015625 -0.140625 -0.015625 -0.265625l-2.171875 1.609375q0.0625 0.203125 0.15625 0.375q0.09375 0.171875 0.21875 0.296875q0.125 0.109375 0.28125 0.1875q0.171875 0.0625 0.375 0.0625q0.265625 0 0.484375 -0.125q0.21875 -0.125 0.359375 -0.375q0.15625 -0.265625 0.234375 -0.640625q0.09375 -0.375 0.09375 -0.875zm-2.34375 -0.046875q0 0.125 0 0.25q0 0.109375 0.015625 0.234375l2.15625 -1.609375q-0.046875 -0.1875 -0.140625 -0.34375q-0.09375 -0.171875 -0.21875 -0.296875q-0.125 -0.125 -0.28125 -0.1875q-0.15625 -0.0625 -0.359375 -0.0625q-0.265625 0 -0.484375 0.125q-0.21875 0.125 -0.375 0.390625q-0.140625 0.25 -0.234375 0.625q-0.078125 0.375 -0.078125 0.875zm7.5234375 2.578125l-0.890625 0l-1.0625 -1.5l-1.046875 1.5l-0.875 0l1.515625 -1.96875l-1.453125 -1.953125l0.875 0l1.03125 1.5l1.015625 -1.5l0.828125 0l-1.46875 1.96875l1.53125 1.953125zm3.8515625 -3.78125q0 0.625 -0.359375 0.953125q-0.34375 0.328125 -1.015625 0.375l-0.03125 0.953125l-0.578125 0l-0.0625 -1.5l0.46875 0q0.234375 0 0.390625 -0.046875q0.15625 -0.046875 0.25 -0.140625q0.109375 -0.09375 0.140625 -0.21875q0.046875 -0.140625 0.046875 -0.3125q0 -0.28125 -0.125 -0.5q-0.109375 -0.234375 -0.328125 -0.375q-0.203125 -0.15625 -0.5 -0.234375q-0.28125 -0.078125 -0.625 -0.078125l-0.09375 0l0 -0.609375l0.109375 0q0.390625 0 0.71875 0.078125q0.328125 0.0625 0.578125 0.1875q0.25 0.125 0.4375 0.296875q0.203125 0.171875 0.328125 0.375q0.125 0.1875 0.1875 0.390625q0.0625 0.203125 0.0625 0.40625zm-1.703125 2.8125q0.109375 0 0.203125 0.046875q0.09375 0.046875 0.15625 0.125q0.078125 0.0625 0.109375 0.15625q0.046875 0.09375 0.046875 0.203125q0 0.09375 -0.046875 0.1875q-0.03125 0.09375 -0.109375 0.171875q-0.0625 0.0625 -0.15625 0.109375q-0.09375 0.046875 -0.203125 0.046875q-0.109375 0 -0.203125 -0.046875q-0.09375 -0.046875 -0.171875 -0.109375q-0.0625 -0.078125 -0.109375 -0.171875q-0.03125 -0.09375 -0.03125 -0.1875q0 -0.109375 0.03125 -0.203125q0.046875 -0.09375 0.109375 -0.15625q0.078125 -0.078125 0.171875 -0.125q0.09375 -0.046875 0.203125 -0.046875zm6.1015625 -2.8125q0 0.625 -0.359375 0.953125q-0.34375 0.328125 -1.015625 0.375l-0.03125 0.953125l-0.578125 0l-0.0625 -1.5l0.46875 0q0.234375 0 0.390625 -0.046875q0.15625 -0.046875 0.25 -0.140625q0.109375 -0.09375 0.140625 -0.21875q0.046875 -0.140625 0.046875 -0.3125q0 -0.28125 -0.125 -0.5q-0.109375 -0.234375 -0.328125 -0.375q-0.203125 -0.15625 -0.5 -0.234375q-0.28125 -0.078125 -0.625 -0.078125l-0.09375 0l0 -0.609375l0.109375 0q0.390625 0 0.71875 0.078125q0.328125 0.0625 0.578125 0.1875q0.25 0.125 0.4375 0.296875q0.203125 0.171875 0.328125 0.375q0.125 0.1875 0.1875 0.390625q0.0625 0.203125 0.0625 0.40625zm-1.703125 2.8125q0.109375 0 0.203125 0.046875q0.09375 0.046875 0.15625 0.125q0.078125 0.0625 0.109375 0.15625q0.046875 0.09375 0.046875 0.203125q0 0.09375 -0.046875 0.1875q-0.03125 0.09375 -0.109375 0.171875q-0.0625 0.0625 -0.15625 0.109375q-0.09375 0.046875 -0.203125 0.046875q-0.109375 0 -0.203125 -0.046875q-0.09375 -0.046875 -0.171875 -0.109375q-0.0625 -0.078125 -0.109375 -0.171875q-0.03125 -0.09375 -0.03125 -0.1875q0 -0.109375 0.03125 -0.203125q0.046875 -0.09375 0.109375 -0.15625q0.078125 -0.078125 0.171875 -0.125q0.09375 -0.046875 0.203125 -0.046875z" fill-rule="nonzero"></path><path fill="#ffffff" d="m262.06824 170.94226l54.551178 0l0 46.803146l-54.551178 0z" fill-rule="nonzero"></path><path stroke="#595959" stroke-width="1.0" stroke-linejoin="round" stroke-linecap="butt" d="m262.06824 170.94226l54.551178 0l0 46.803146l-54.551178 0z" fill-rule="nonzero"></path><path fill="#ffffff" d="m98.414696 170.94226l54.551186 0l0 46.803146l-54.551186 0z" fill-rule="nonzero"></path><path stroke="#595959" stroke-width="1.0" stroke-linejoin="round" stroke-linecap="butt" d="m98.414696 170.94226l54.551186 0l0 46.803146l-54.551186 0z" fill-rule="nonzero"></path><path fill="#d9ead3" d="m152.96588 170.94226l54.551178 0l0 46.803146l-54.551178 0z" fill-rule="nonzero"></path><path stroke="#595959" stroke-width="1.0" stroke-linejoin="round" stroke-linecap="butt" d="m152.96588 170.94226l54.551178 0l0 46.803146l-54.551178 0z" fill-rule="nonzero"></path><path fill="#000000" d="m175.5071 194.47696q0 0.578125 -0.125 1.0625q-0.109375 0.484375 -0.359375 0.828125q-0.234375 0.34375 -0.59375 0.546875q-0.34375 0.1875 -0.828125 0.1875q-0.40625 0 -0.75 -0.15625q-0.328125 -0.15625 -0.5625 -0.46875q-0.234375 -0.328125 -0.375 -0.828125q-0.125 -0.5 -0.125 -1.171875q0 -0.59375 0.109375 -1.078125q0.125 -0.484375 0.359375 -0.828125q0.25 -0.34375 0.59375 -0.53125q0.359375 -0.1875 0.828125 -0.1875q0.421875 0 0.75 0.15625q0.34375 0.140625 0.578125 0.46875q0.234375 0.328125 0.359375 0.828125q0.140625 0.484375 0.140625 1.171875zm-0.6875 0.015625q0 -0.125 -0.015625 -0.25q-0.015625 -0.140625 -0.015625 -0.265625l-2.171875 1.609375q0.0625 0.203125 0.15625 0.375q0.09375 0.171875 0.21875 0.296875q0.125 0.109375 0.28125 0.1875q0.171875 0.0625 0.375 0.0625q0.265625 0 0.484375 -0.125q0.21875 -0.125 0.359375 -0.375q0.15625 -0.265625 0.234375 -0.640625q0.09375 -0.375 0.09375 -0.875zm-2.34375 -0.046875q0 0.125 0 0.25q0 0.109375 0.015625 0.234375l2.15625 -1.609375q-0.046875 -0.1875 -0.140625 -0.34375q-0.09375 -0.171875 -0.21875 -0.296875q-0.125 -0.125 -0.28125 -0.1875q-0.15625 -0.0625 -0.359375 -0.0625q-0.265625 0 -0.484375 0.125q-0.21875 0.125 -0.375 0.390625q-0.140625 0.25 -0.234375 0.625q-0.078125 0.375 -0.078125 0.875zm7.5234375 2.578125l-0.890625 0l-1.0625 -1.5l-1.046875 1.5l-0.875 0l1.515625 -1.96875l-1.453125 -1.953125l0.875 0l1.03125 1.5l1.015625 -1.5l0.828125 0l-1.46875 1.96875l1.53125 1.953125zm3.8515625 -3.78125q0 0.625 -0.359375 0.953125q-0.34375 0.328125 -1.015625 0.375l-0.03125 0.953125l-0.578125 0l-0.0625 -1.5l0.46875 0q0.234375 0 0.390625 -0.046875q0.15625 -0.046875 0.25 -0.140625q0.109375 -0.09375 0.140625 -0.21875q0.046875 -0.140625 0.046875 -0.3125q0 -0.28125 -0.125 -0.5q-0.109375 -0.234375 -0.328125 -0.375q-0.203125 -0.15625 -0.5 -0.234375q-0.28125 -0.078125 -0.625 -0.078125l-0.09375 0l0 -0.609375l0.109375 0q0.390625 0 0.71875 0.078125q0.328125 0.0625 0.578125 0.1875q0.25 0.125 0.4375 0.296875q0.203125 0.171875 0.328125 0.375q0.125 0.1875 0.1875 0.390625q0.0625 0.203125 0.0625 0.40625zm-1.703125 2.8125q0.109375 0 0.203125 0.046875q0.09375 0.046875 0.15625 0.125q0.078125 0.0625 0.109375 0.15625q0.046875 0.09375 0.046875 0.203125q0 0.09375 -0.046875 0.1875q-0.03125 0.09375 -0.109375 0.171875q-0.0625 0.0625 -0.15625 0.109375q-0.09375 0.046875 -0.203125 0.046875q-0.109375 0 -0.203125 -0.046875q-0.09375 -0.046875 -0.171875 -0.109375q-0.0625 -0.078125 -0.109375 -0.171875q-0.03125 -0.09375 -0.03125 -0.1875q0 -0.109375 0.03125 -0.203125q0.046875 -0.09375 0.109375 -0.15625q0.078125 -0.078125 0.171875 -0.125q0.09375 -0.046875 0.203125 -0.046875zm6.1015625 -2.8125q0 0.625 -0.359375 0.953125q-0.34375 0.328125 -1.015625 0.375l-0.03125 0.953125l-0.578125 0l-0.0625 -1.5l0.46875 0q0.234375 0 0.390625 -0.046875q0.15625 -0.046875 0.25 -0.140625q0.109375 -0.09375 0.140625 -0.21875q0.046875 -0.140625 0.046875 -0.3125q0 -0.28125 -0.125 -0.5q-0.109375 -0.234375 -0.328125 -0.375q-0.203125 -0.15625 -0.5 -0.234375q-0.28125 -0.078125 -0.625 -0.078125l-0.09375 0l0 -0.609375l0.109375 0q0.390625 0 0.71875 0.078125q0.328125 0.0625 0.578125 0.1875q0.25 0.125 0.4375 0.296875q0.203125 0.171875 0.328125 0.375q0.125 0.1875 0.1875 0.390625q0.0625 0.203125 0.0625 0.40625zm-1.703125 2.8125q0.109375 0 0.203125 0.046875q0.09375 0.046875 0.15625 0.125q0.078125 0.0625 0.109375 0.15625q0.046875 0.09375 0.046875 0.203125q0 0.09375 -0.046875 0.1875q-0.03125 0.09375 -0.109375 0.171875q-0.0625 0.0625 -0.15625 0.109375q-0.09375 0.046875 -0.203125 0.046875q-0.109375 0 -0.203125 -0.046875q-0.09375 -0.046875 -0.171875 -0.109375q-0.0625 -0.078125 -0.109375 -0.171875q-0.03125 -0.09375 -0.03125 -0.1875q0 -0.109375 0.03125 -0.203125q0.046875 -0.09375 0.109375 -0.15625q0.078125 -0.078125 0.171875 -0.125q0.09375 -0.046875 0.203125 -0.046875z" fill-rule="nonzero"></path><path fill="#000000" fill-opacity="0.0" d="m234.06299 217.51443c18.75679 6.856079 58.71393 34.20166 112.54068 41.136475c53.826782 6.934845 165.57785 7.171051 210.41995 0.47244263c44.842102 -6.698593 48.860474 -33.88669 58.63257 -40.664032" fill-rule="nonzero"></path><path stroke="#595959" stroke-width="1.0" stroke-linejoin="round" stroke-linecap="butt" d="m234.06299 217.51443c18.75679 6.856079 58.71393 34.201675 112.54068 41.136475c53.826782 6.9348145 165.57791 7.171051 210.41995 0.47244263c22.42102 -3.3492737 34.63617 -11.820969 42.46753 -20.30249c3.9156494 -4.240753 6.7354126 -8.483978 9.187012 -12.090591c0.61291504 -0.9016571 1.2027588 -1.763504 1.7810059 -2.5756226c0.28912354 -0.40603638 0.5753174 -0.79963684 0.8600464 -1.1795349l0.15930176 -0.20913696" fill-rule="evenodd"></path><path fill="#595959" stroke="#595959" stroke-width="1.0" stroke-linecap="butt" d="m612.6641 223.91603l1.9741821 -4.4073944l-4.345337 2.1072845z" fill-rule="evenodd"></path><path fill="#000000" fill-opacity="0.0" d="m181.10274 217.98688c3.8617706 7.2502136 -11.584427 31.680222 23.170609 43.501312c34.75502 11.821075 143.98468 34.675415 185.35959 27.425201c41.374878 -7.2502136 52.40811 -59.105423 62.88974 -70.92651" fill-rule="nonzero"></path><path stroke="#595959" stroke-width="1.0" stroke-linejoin="round" stroke-linecap="butt" d="m181.10274 217.98688c3.8617706 7.250229 -11.584427 31.680222 23.170593 43.501312c34.75505 11.821106 143.9847 34.675415 185.35957 27.425201c20.68747 -3.625122 33.78949 -18.40149 43.029877 -33.74919c4.620178 -7.6738586 8.274963 -15.49054 11.429779 -22.127594c1.5774231 -3.3185272 3.0298462 -6.3421326 4.4154663 -8.905533c0.17318726 -0.3204193 0.34536743 -0.63365173 0.51657104 -0.93937683l0.13391113 -0.2367096" fill-rule="evenodd"></path><path fill="#595959" stroke="#595959" stroke-width="1.0" stroke-linecap="butt" d="m450.52615 223.88112l1.1768494 -4.6837616l-3.9121704 2.8315277z" fill-rule="evenodd"></path><path fill="#000000" fill-opacity="0.0" d="m233.59055 365.51706c36.80359 7.565613 156.90726 45.393707 220.82153 45.393707c63.914276 0 135.55338 -37.828094 162.66403 -45.393707" fill-rule="nonzero"></path><path stroke="#595959" stroke-width="1.0" stroke-linejoin="round" stroke-linecap="butt" d="m233.59055 365.51706c36.80359 7.565613 156.90729 45.393707 220.82153 45.393707c31.957092 0 65.84549 -9.457031 95.13333 -19.859741c14.643982 -5.201355 28.137756 -10.63916 39.66504 -15.24942c5.763672 -2.3051758 11.035645 -4.403473 15.713928 -6.1618958c1.1695557 -0.4395752 2.302063 -0.8579407 3.395813 -1.2529907c0.546875 -0.19754028 1.0841064 -0.3892212 1.6114502 -0.5747986c0.26367188 -0.092803955 0.5248413 -0.18408203 0.78356934 -0.27383423l0.63775635 -0.21942139" fill-rule="evenodd"></path><path fill="#595959" stroke="#595959" stroke-width="1.0" stroke-linecap="butt" d="m611.84894 368.89417l3.8327026 -2.9381409l-4.824646 -0.21289062z" fill-rule="evenodd"></path><path fill="#000000" fill-opacity="0.0" d="m179.2126 365.51706c23.090988 7.7230835 92.600174 46.338593 138.54594 46.338593c45.94574 0 114.273834 -38.61551 137.1286 -46.338593" fill-rule="nonzero"></path><path stroke="#595959" stroke-width="1.0" stroke-linejoin="round" stroke-linecap="butt" d="m179.2126 365.51706c23.090973 7.7230835 92.600174 46.338593 138.54594 46.338593c22.97287 0 51.54132 -9.65387 77.22342 -20.273132c12.841034 -5.3096313 24.96045 -10.860626 35.298096 -15.566864c5.1687927 -2.353119 9.892151 -4.495117 14.037537 -6.2901c1.0363159 -0.448761 2.0365295 -0.875824 2.9985657 -1.2791138c0.48098755 -0.20159912 0.9524536 -0.39730835 1.4141235 -0.586792l0.54455566 -0.22079468" fill-rule="evenodd"></path><path fill="#595959" stroke="#595959" stroke-width="1.0" stroke-linecap="butt" d="m449.85895 369.18387l3.6607666 -3.1498108l-4.8289795 0.059814453z" fill-rule="evenodd"></path></g></svg>

